#!OML:ASF H:\Terrain\Walking\May29\JustinRory\Justin.ASF
:FULLY-SPECIFIED
:DEGREES
206
root 6.70514 17.9513 6.31464 -179.033 -18.3719 -177.33
lowerback 3.9112 3.57431 -2.58678
upperback 1.88267 4.60747 -0.0348789
thorax -0.454624 2.26255 1.20609
lowerneck -9.76908 -9.28456 -16.2962
upperneck 24.555 -12.815 6.59309
head 11.0474 -7.02691 3.27744
rclavicle -6.85807e-015 -8.74653e-015
rhumerus -7.30049 -13.4571 -85.1884
rradius 57.871
rwrist -33.9119
rhand -29.2843 23.5085
rfingers 7.12502
rthumb -2.62628 -6.4551
lclavicle -6.85807e-015 -8.74653e-015
lhumerus -35.8582 19.725 64.4414
lradius 26.316
lwrist -7.95826
lhand -2.76093 37.8802
lfingers 7.12502
lthumb 22.9434 66.535
rfemur -14.4754 -5.35441 15.8826
rtibia 24.0387
rfoot -8.96292 -8.60664
rtoes 0.693153
lfemur -13.8694 -5.06448 -17.2921
ltibia 27.1645
lfoot -11.6668 -12.2301
ltoes -1.32349
207
root 6.71466 17.9551 6.33518 -179.135 -18.5753 -177.755
lowerback 3.94116 3.62496 -3.0429
upperback 2.08688 4.64988 -0.103937
thorax -0.293253 2.27247 1.39158
lowerneck -9.98668 -9.25929 -15.8545
upperneck 24.7518 -12.7304 6.15725
head 11.087 -6.99346 3.05454
rclavicle 1.52567e-014 9.54166e-015
rhumerus -5.99563 -13.8372 -85.0089
rradius 56.0634
rwrist -34.5278
rhand -29.0631 24.1829
rfingers 7.12502
rthumb -2.41269 -5.78322
lclavicle 1.52567e-014 9.54166e-015
lhumerus -36.2443 19.7797 64.4437
lradius 26.4196
lwrist -7.21725
lhand -3.03665 37.7235
lfingers 7.12502
lthumb 22.6788 66.4109
rfemur -14.3671 -5.48415 15.3274
rtibia 24.5509
rfoot -9.45094 -8.24167
rtoes 0.315272
lfemur -13.5743 -5.42376 -17.7524
ltibia 26.9491
lfoot -11.6456 -12.0909
ltoes -1.66164
208
root 6.72273 17.961 6.35757 -179.317 -18.7811 -177.805
lowerback 4.01708 3.62212 -3.06191
upperback 2.12917 4.64117 -0.0811493
thorax -0.29504 2.26646 1.42237
lowerneck -9.78732 -9.15824 -15.8956
upperneck 25.0124 -12.685 6.17316
head 11.1439 -7.00051 3.08062
rclavicle 3.69243e-014 -1.59028e-014
rhumerus -4.90879 -14.0343 -84.6986
rradius 54.0775
rwrist -35.3114
rhand -28.869 25.1774
rfingers 7.12502
rthumb -2.22522 -4.79078
lclavicle 3.69243e-014 -1.59028e-014
lhumerus -36.9633 19.8753 64.307
lradius 26.6278
lwrist -6.6618
lhand -2.94091 37.7224
lfingers 7.12502
lthumb 22.7707 66.3986
rfemur -14.259 -5.79537 15.1981
rtibia 25.1257
rfoot -9.67226 -7.76972
rtoes 0.079105
lfemur -13.3392 -5.65246 -17.8391
ltibia 26.7222
lfoot -11.6318 -12.0037
ltoes -2.27512
209
root 6.7341 17.9631 6.38158 -179.465 -19.0809 -177.863
lowerback 4.11109 3.54406 -3.09209
upperback 2.13682 4.53216 -0.051392
thorax -0.339042 2.21186 1.4691
lowerneck -9.48952 -9.04652 -16.162
upperneck 25.2197 -12.6417 6.35427
head 11.1912 -7.01467 3.20583
rclavicle 1.32689e-014 -1.98785e-015
rhumerus -3.77593 -14.0582 -84.3616
rradius 52.0295
rwrist -36.2004
rhand -28.6534 26.0443
rfingers 7.12502
rthumb -2.01699 -3.92595
lclavicle 1.32689e-014 -1.98785e-015
lhumerus -37.5331 19.7854 64.2987
lradius 26.7048
lwrist -6.10314
lhand -2.71429 37.756
lfingers 7.12502
lthumb 22.9881 66.4052
rfemur -14.1664 -6.28819 15.092
rtibia 25.6638
rfoot -9.8306 -7.37676
rtoes -1.04255
lfemur -13.2569 -5.74559 -17.9085
ltibia 26.6131
lfoot -11.4349 -12.2268
ltoes -1.77169
210
root 6.7495 17.9603 6.40168 -179.626 -19.3415 -177.711
lowerback 4.09407 3.51055 -2.95383
upperback 2.19209 4.49305 -0.00420533
thorax -0.264267 2.19092 1.44617
lowerneck -9.53581 -9.0103 -16.3029
upperneck 25.5588 -12.6605 6.4961
head 11.3518 -7.0383 3.27124
rclavicle 3.40419e-014 -2.06736e-014
rhumerus -2.55356 -14.3452 -84.1187
rradius 50.1894
rwrist -37.3031
rhand -28.4448 26.7655
rfingers 7.12502
rthumb -1.81552 -3.20652
lclavicle 3.40419e-014 -2.06736e-014
lhumerus -37.7559 19.8517 64.2521
lradius 26.5043
lwrist -6.04721
lhand -2.34229 37.1671
lfingers 7.12502
lthumb 23.3451 65.7715
rfemur -14.0775 -6.52217 15.2025
rtibia 26.1903
rfoot -10.5068 -7.25863
rtoes -1.51326
lfemur -13.2505 -5.84857 -17.7052
ltibia 26.5747
lfoot -11.2367 -12.5202
ltoes -0.772703
